<svg width="38" height="38" viewBox="0 0 38 38" fill="none" xmlns="http://www.w3.org/2000/svg">
<path fill-rule="evenodd" clip-rule="evenodd" d="M37.4975 14.8333H23.3725L29.0808 8.95833C23.3933 3.33333 14.185 3.125 8.49747 8.75C2.80997 14.3958 2.80997 23.5 8.49747 29.1458C14.185 34.7917 23.3933 34.7917 29.0808 29.1458C31.9141 26.3542 33.3308 23.0833 33.3308 18.9583H37.4975C37.4975 23.0833 35.6641 28.4375 31.9975 32.0625C24.685 39.3125 12.81 39.3125 5.49747 32.0625C-1.7942 24.8333 -1.8567 13.0833 5.4558 5.85417C12.7683 -1.375 24.4975 -1.375 31.81 5.85417L37.4975 0V14.8333ZM19.7891 10.4167V19.2708L27.0808 23.6042L25.5808 26.125L16.6641 20.8333V10.4167H19.7891Z" fill="black"/>
</svg>
