<svg width="50" height="50" viewBox="0 0 50 50" fill="none" xmlns="http://www.w3.org/2000/svg">
<path fill-rule="evenodd" clip-rule="evenodd" d="M24.584 22.7083C19.8548 21.4792 18.334 20.2083 18.334 18.2292C18.334 15.9583 20.4381 14.375 23.959 14.375C27.6673 14.375 29.0423 16.1458 29.1673 18.75H33.7715C33.6256 15.1667 31.4381 11.875 27.084 10.8125V6.25H20.834V10.75C16.7923 11.625 13.5423 14.25 13.5423 18.2708C13.5423 23.0833 17.5215 25.4792 23.334 26.875C28.5423 28.125 29.584 29.9583 29.584 31.8958C29.584 33.3333 28.5631 35.625 23.959 35.625C19.6673 35.625 17.9798 33.7083 17.7506 31.25H13.1673C13.4173 35.8125 16.834 38.375 20.834 39.2292V43.75H27.084V39.2708C31.1465 38.5 34.3756 36.1458 34.3756 31.875C34.3756 25.9583 29.3131 23.9375 24.584 22.7083Z" fill="black"/>
</svg>
